<svg xmlns="http://www.w3.org/2000/svg" viewBox="0 0 659.42 659.34"><defs><style>.cls-1{fill:#fff;}</style></defs><g id="Layer_2" data-name="Layer 2"><g id="Layer_1-2" data-name="Layer 1"><path class="cls-1" d="M243.7,473c-7.91,0-14.34,6.89-14.34,15.36v12.28c0,8.48,6.43,15.36,14.34,15.36S258,509.11,258,500.63V488.35C258,479.88,251.6,473,243.7,473Z"/><path class="cls-1" d="M301,473c-7.91,0-14.34,6.89-14.34,15.36v12.28c0,8.48,6.43,15.36,14.34,15.36s14.33-6.88,14.33-15.36V488.35C315.37,479.88,308.94,473,301,473Z"/><path class="cls-1" d="M358.38,473c-7.91,0-14.34,6.89-14.34,15.36v12.28c0,8.48,6.43,15.36,14.34,15.36s14.33-6.88,14.33-15.36V488.35C372.71,479.88,366.29,473,358.38,473Z"/><path class="cls-1" d="M415.72,516c-7.91,0-14.34,6.89-14.34,15.36v12.29c0,8.47,6.43,15.36,14.34,15.36s14.33-6.89,14.33-15.36V531.35C430.05,522.88,423.63,516,415.72,516Z"/><path class="cls-1" d="M415.72,573.33c-7.91,0-14.34,6.89-14.34,15.36V601c0,8.47,6.43,15.36,14.34,15.36s14.33-6.89,14.33-15.36V588.69C430.05,580.22,423.63,573.33,415.72,573.33Z"/><path class="cls-1" d="M358.38,530.33c-7.91,0-14.34,6.89-14.34,15.36V558c0,8.48,6.43,15.36,14.34,15.36s14.33-6.88,14.33-15.36V545.69C372.71,537.22,366.29,530.33,358.38,530.33Z"/><path class="cls-1" d="M372.71,603c0-8.47-6.42-15.36-14.33-15.36S344,594.56,344,603v12.28c0,.37.17.67.2,1s-.2.66-.2,1v12.29c0,.36.17.67.2,1s-.2.67-.2,1V644c0,8.47,6.43,15.35,14.34,15.35s14.33-6.88,14.33-15.35V631.7c0-.36-.17-.67-.19-1s.19-.66.19-1V617.36c0-.36-.17-.66-.19-1s.19-.66.19-1Z"/><path class="cls-1" d="M301,616.34c-7.91,0-14.34,6.89-14.34,15.36V644c0,8.47,6.43,15.35,14.34,15.35s14.33-6.88,14.33-15.35V631.7C315.37,623.23,308.94,616.34,301,616.34Z"/><path class="cls-1" d="M315.37,545.69c0-8.47-6.43-15.36-14.33-15.36s-14.34,6.89-14.34,15.36V558c0,.37.17.67.2,1s-.2.66-.2,1v12.29c0,.36.17.67.2,1s-.2.66-.2,1v12.28c0,8.48,6.43,15.36,14.34,15.36s14.33-6.88,14.33-15.36V574.36c0-.37-.17-.67-.19-1s.19-.66.19-1V560c0-.36-.17-.66-.19-1s.19-.66.19-1Z"/><path class="cls-1" d="M243.7,573.33c-7.91,0-14.34,6.89-14.34,15.36V601c0,8.47,6.43,15.36,14.34,15.36S258,609.45,258,601V588.69C258,580.22,251.6,573.33,243.7,573.33Z"/><path class="cls-1" d="M243.73,530.33h-.12a14.36,14.36,0,1,0,.12,0Z"/><path class="cls-1" d="M415.75,473h-.11a14.36,14.36,0,1,0,.11,0Z"/><path class="cls-1" d="M415.75,630.67h-.11a14.36,14.36,0,1,0,.11,0Z"/><path class="cls-1" d="M243.73,630.67h-.12a14.36,14.36,0,1,0,.12,0Z"/><path class="cls-1" d="M426.42,0C356.61,0,292.33,29.38,248,80.25a197.11,197.11,0,0,0-53.23-7.31C87.26,72.94,0,159.36,0,265.83S87.26,458.72,194.74,458.72a195.54,195.54,0,0,0,118.68-40.26,238.72,238.72,0,0,0,113,28.23c128.43,0,233-100.17,233-223.28S554.85,0,426.42,0Zm0,410.72a200.51,200.51,0,0,1-84.64-18.78c16.58-18.91,38-65.77,38-65.77,0-.15.15-.29.15-.43a18,18,0,0,0-3.5-16.2,17.25,17.25,0,0,0-8.87-5.87,16.8,16.8,0,0,0-9.6-.15,17.92,17.92,0,0,0-12.79,11l-.44,1.29a154.58,154.58,0,0,1-44.36,66.64l-1.75,1.57c-1,.86-2,1.86-3.05,2.58a156.67,156.67,0,0,1-100.79,36.11c-87.26,0-158.38-70.36-158.38-156.92s71.12-157.06,158.38-157.06a162.34,162.34,0,0,1,30,3c-6.54,10.75-17.45,35.54-17.74,36.4,0,.14-.15.29-.15.43a18,18,0,0,0,1.31,13.76,17.86,17.86,0,0,0,10.33,8.74,15.67,15.67,0,0,0,4.94.86,18.22,18.22,0,0,0,17.17-9.32,15.9,15.9,0,0,0,1.16-2.72,176.17,176.17,0,0,1,25.74-46.43c1.46-2,2.76-3.58,4.36-5.45,38-46,94.1-72.08,154.6-72.08,108.21,0,196.2,84.12,196.2,187.44S534.63,410.72,426.42,410.72Z"/></g></g></svg>