<svg xmlns="http://www.w3.org/2000/svg" viewBox="0 0 699.8 700.85"><defs><style>.cls-1{fill:#fff;}</style></defs><g id="Layer_2" data-name="Layer 2"><g id="Layer_1-2" data-name="Layer 1"><path class="cls-1" d="M691.06,26.24h-17.5V8.75a8.75,8.75,0,1,0-17.49,0V26.24h-17.5a8.75,8.75,0,1,0,0,17.5h17.5V61.23a8.75,8.75,0,1,0,17.49,0V43.74h17.5a8.75,8.75,0,0,0,0-17.5Z"/><path class="cls-1" d="M559.84,70H542.35V52.49a8.75,8.75,0,0,0-17.5,0V70H507.36a8.75,8.75,0,0,0,0,17.5h17.49V105a8.75,8.75,0,1,0,17.5,0V87.48h17.49a8.75,8.75,0,0,0,0-17.5Z"/><path class="cls-1" d="M301.68,176.73l-11-1.35a259.63,259.63,0,0,0-27.24-1.47C118.19,173.91,0,292.1,0,437.38S118.19,700.85,263.48,700.85a259.81,259.81,0,0,0,27.38-1.49L301.7,698C430.54,679.34,527,568.3,527,437.38S430.52,195.42,301.68,176.73Zm-41.9,488.94C135.51,663.66,35,562.12,35,437.38S135.51,211.09,259.78,209.09C179.47,253.62,125.09,339,125.09,437.38S179.47,621.13,259.78,665.67Z"/></g></g></svg>