<svg xmlns="http://www.w3.org/2000/svg" viewBox="0 0 717.92 702.31"><defs><style>.cls-1{fill:#fff;}</style></defs><g id="Layer_2" data-name="Layer 2"><g id="Layer_1-2" data-name="Layer 1"><path class="cls-1" d="M412.48,525.33h-.16A43.85,43.85,0,0,0,400.13,520l-45.6-12.45-.16.16v-.16l21.69-55.16,5.7-14.65,3-7.57,1.27-3.31a21.79,21.79,0,0,0,1.26-12.29,17.65,17.65,0,0,0-1.74-6.3,22.51,22.51,0,0,0-6.81-8.51,21.17,21.17,0,0,0-6.33-3.63,21.7,21.7,0,0,0-6.49-1.42,10.29,10.29,0,0,0-2.06-.15,3.69,3.69,0,0,0-1.27.15A19.53,19.53,0,0,0,352,397.83a23.77,23.77,0,0,0-10.13,11.67l-2.69,6.77-.48,1.11-.79,2.2-5.07,12.77-5.86,15L310,490a10.72,10.72,0,0,0-.79,2.68,47.17,47.17,0,0,0,27.39,58.62,30.53,30.53,0,0,0,5.07,1.74l45.76,12.61L325.39,666.22a23.48,23.48,0,0,0,13.94,35.15,20.68,20.68,0,0,0,4.27.79,8.13,8.13,0,0,0,1.9.15,24.09,24.09,0,0,0,20.27-11.19L428,590.42a46.54,46.54,0,0,0,5.7-35.78A47.22,47.22,0,0,0,412.48,525.33Z"/><path class="cls-1" d="M464.26,0C388.41,0,318,32,269.81,88.1a211,211,0,0,0-57.63-8C95.16,80.06,0,175.25,0,292.18S95.16,504.31,212.18,504.31a209.61,209.61,0,0,0,57.95-8.19c.95-.32,2.06-.48,3-.79a19.51,19.51,0,0,0,13.77-21.59,18.86,18.86,0,0,0-.63-3,16.18,16.18,0,0,0-2.22-4.73,19.67,19.67,0,0,0-22.64-8.35,170.55,170.55,0,0,1-49.24,7.09c-95.17,0-172.44-77.38-172.44-172.57S117,119.62,212.18,119.62a161.89,161.89,0,0,1,32.46,3.31,226.88,226.88,0,0,0-17.58,35.77c-.16.16-.16.47-.31.63-.16.32-.16.47-.32.79A20,20,0,0,0,264,174a190,190,0,0,1,27.24-49.17,46,46,0,0,1,4.75-6c41.33-50.59,102.45-79.27,168.32-79.27,117.8,0,213.6,92.51,213.6,206,0,113.62-95.8,206-213.6,206a218.81,218.81,0,0,1-35.15-2.84A20.25,20.25,0,0,0,418,449.94a19.76,19.76,0,0,0-11.87,14.81,20.7,20.7,0,0,0,2.37,13.56,19,19,0,0,0,13.14,9.3c.16,0,29.14,3.62,42.6,3.62,139.81,0,253.66-110.16,253.66-245.69C717.92,110.16,604.07,0,464.26,0Z"/></g></g></svg>