<svg xmlns="http://www.w3.org/2000/svg" viewBox="0 0 499.88 499.88"><defs><style>.cls-1{fill:#fff;}</style></defs><g id="Layer_2" data-name="Layer 2"><g id="Layer_1-2" data-name="Layer 1"><path class="cls-1" d="M258.75,73l4.82.29V13.63a13.64,13.64,0,0,0-27.27,0V73.26l4.82-.29A148.14,148.14,0,0,1,258.75,73Z"/><path class="cls-1" d="M241.13,426.9l-4.83-.3v59.64a13.64,13.64,0,1,0,27.27,0V426.6l-4.83.3A143.71,143.71,0,0,1,241.13,426.9Z"/><path class="cls-1" d="M118.5,368.83l-3.21-3.49L73.22,407.41a13.59,13.59,0,0,0-.08,19.16,13.64,13.64,0,0,0,19.32.08l42.08-42.06-3.5-3.21C126.7,377.39,122.48,373.17,118.5,368.83Z"/><path class="cls-1" d="M381.38,131l3.21,3.5,42.06-42.07a13.62,13.62,0,0,0,0-19.25,13.94,13.94,0,0,0-19.25,0l-42.07,42.07,3.49,3.21C373.17,122.48,377.39,126.7,381.38,131Z"/><path class="cls-1" d="M73,258.74c-.19-2.9-.27-5.9-.27-8.8s.08-5.9.27-8.81l.3-4.83H13.63a13.64,13.64,0,0,0,0,27.27H73.28Z"/><path class="cls-1" d="M392.76,249.94c0-2.86-.08-5.64-.26-8.4a142.51,142.51,0,0,0-35.9-86.33,113.88,113.88,0,0,0-11.88-11.88,142.48,142.48,0,0,0-86.37-36,138.65,138.65,0,0,0-16.81,0,142.46,142.46,0,0,0-86.33,35.91,112.92,112.92,0,0,0-11.88,11.88,142.48,142.48,0,0,0-36,86.36c-.17,2.78-.25,5.56-.25,8.42s.08,5.64.25,8.4a142.41,142.41,0,0,0,35.91,86.32,112.92,112.92,0,0,0,11.88,11.88,142.48,142.48,0,0,0,86.36,36c2.78.18,5.56.26,8.42.26s5.64-.08,8.4-.26a142.46,142.46,0,0,0,86.32-35.9,112.92,112.92,0,0,0,11.88-11.88,142.48,142.48,0,0,0,36-86.37C392.68,255.58,392.76,252.8,392.76,249.94Zm-24.8,7.9a116.52,116.52,0,0,1-29,70,124.37,124.37,0,0,1-11.13,11.13,116.52,116.52,0,0,1-70.08,29A86.44,86.44,0,0,1,242,368a116.49,116.49,0,0,1-70-29,125.82,125.82,0,0,1-11.14-11.13,116.67,116.67,0,0,1-29-70.08c-.23-2.57-.31-5.14-.31-7.78s.08-5.22.32-7.9a116.52,116.52,0,0,1,29-70,124.6,124.6,0,0,1,11.14-11.14,116.64,116.64,0,0,1,70.07-29c2.57-.23,5.14-.31,7.79-.31s5.21.08,7.9.32a116.49,116.49,0,0,1,70,29,123.29,123.29,0,0,1,11.14,11.14,116.5,116.5,0,0,1,29,70.07c.24,2.57.32,5.14.32,7.79S368.2,255.15,368,257.84Z"/><path class="cls-1" d="M486.24,236.3H426.6l.3,4.83c.18,2.91.27,5.9.27,8.81s-.09,5.9-.27,8.8l-.3,4.83h59.64a13.64,13.64,0,1,0,0-27.27Z"/><path class="cls-1" d="M115.29,134.54l3.21-3.5c4-4.34,8.2-8.56,12.54-12.54l3.5-3.21L92.47,73.22a14,14,0,0,0-19.25,0,13.59,13.59,0,0,0,0,19.24Z"/><path class="cls-1" d="M384.59,365.34l-3.21,3.49c-4,4.34-8.21,8.56-12.55,12.55l-3.49,3.21,42,42a13.65,13.65,0,0,0,19.32.09,13.6,13.6,0,0,0,0-19.25Z"/></g></g></svg>