<svg xmlns="http://www.w3.org/2000/svg" viewBox="0 0 544.16 378.55"><defs><style>.cls-1{fill:#fff;}</style></defs><g id="Layer_2" data-name="Layer 2"><g id="Layer_1-2" data-name="Layer 1"><path class="cls-1" d="M351.89,0C294.28,0,241.24,24.24,204.63,66.22a162.62,162.62,0,0,0-43.93-6C72,60.19,0,131.5,0,219.37S72,378.55,160.7,378.55a161.36,161.36,0,0,0,97.94-33.23,197,197,0,0,0,93.25,23.29c106,0,192.27-82.66,192.27-184.24S457.87,0,351.89,0Zm0,338.93A165.5,165.5,0,0,1,282,323.44c13.68-15.61,31.33-54.28,31.33-54.28s.12-.24.12-.36a14.83,14.83,0,0,0-2.88-13.36,14.26,14.26,0,0,0-7.32-4.85,13.92,13.92,0,0,0-7.93-.12,14.81,14.81,0,0,0-10.56,9.11l-.36,1.06a127.57,127.57,0,0,1-36.6,55l-1.44,1.3c-.84.71-1.68,1.54-2.52,2.13a129.32,129.32,0,0,1-83.18,29.8c-72,0-130.7-58.06-130.7-129.49S88.69,89.76,160.7,89.76a133.54,133.54,0,0,1,24.73,2.48c-5.4,8.87-14.4,29.33-14.64,30,0,.12-.12.24-.12.35A14.88,14.88,0,0,0,171.75,134a14.72,14.72,0,0,0,8.52,7.21,13,13,0,0,0,4.08.71,15,15,0,0,0,14.16-7.69,12.91,12.91,0,0,0,1-2.24,145.37,145.37,0,0,1,21.24-38.32c1.2-1.65,2.28-3,3.6-4.49,31.33-38,77.66-59.49,127.58-59.49,89.3,0,161.91,69.42,161.91,154.69S441.19,338.93,351.89,338.93Z"/></g></g></svg>