<svg xmlns="http://www.w3.org/2000/svg" viewBox="0 0 3550.06 781.03"><defs><style>.cls-1{fill:#fff;}</style></defs><g id="Layer_2" data-name="Layer 2"><g id="Layer_1-2" data-name="Layer 1"><g id="Group_1" data-name="Group 1"><path id="Path_61" data-name="Path 61" class="cls-1" d="M3372.25,91.64A18.43,18.43,0,0,0,3367.32,78a28.76,28.76,0,0,0-12-7.08,52.34,52.34,0,0,0-15.28-2.19,92,92,0,0,0-14.73,1.09v-12a282.68,282.68,0,0,0,33.82-6,382.16,382.16,0,0,0,44.72-13.09,346.37,346.37,0,0,0,42-18A62.21,62.21,0,0,0,3471.53,0h12V717.83A40.95,40.95,0,0,0,3525,759.28h25.09v10.86H3309V759.28h25.09a41,41,0,0,0,41.45-41.45V91.64Z"/><path id="Path_62" data-name="Path 62" class="cls-1" d="M466.88,665.55C389.25,757.46,288.48,819,172.32,747.36-26.42,618.38-49.61,297.19,84,113,181.09-42.72,418.87-41.51,458.69,153.92c10.42,55.66-7.26,124.5-51.81,162.53-32.06-137.59-186.66-395.3-290.75-192-73.92,141.47,55.29,624,253.1,600,35-14,63.78-48.06,90-74.19Z"/><path id="Path_63" data-name="Path 63" class="cls-1" d="M714.93,385.15c60.4-64.95,46.66-151.3-44.73-88.9-43,32.45-74,82.39-92.72,141.28-56.47-33.14-75.31-83.92-42.55-135.25,85.54-114,337.16-113.8,379.65,45.81C934,393.14,920.64,666.18,924.45,719c-1.17,36.35,37.37,45.29,66.54,41.46v10.92H887.33c-86.94-2-70.28-97-70.91-156C741,858.59,416.32,819.77,527.85,569,574.47,492,664,450.2,718.23,379.74ZM687.66,260.76C756.35,251,796,295.32,756.38,360c-33,70.5-120.36,138.27-138,206.73-36.76,122,111.78,146.38,163.64,52.32,45.93-66,29.32-194.78,32.19-273.28a87.87,87.87,0,0,0-126.53-85Z"/><path id="Path_64" data-name="Path 64" class="cls-1" d="M1212.94,216.06c49.17.44,107,11,143.46,46.9,50.44,42.86,25.87,132.29-42,138.55-23.24-60.07-61.85-107.36-111.82-132.54-42.57-23.9-110.43-8.65-85.64,49.63,58.76,116.23,258.88,148.14,292.37,281.46,22.84,188.19-293.87,235.16-391.1,104.19A104.26,104.26,0,0,1,1052.88,561q2-1.22,4-2.34a261.84,261.84,0,0,0,26.73,39.82c35.62,44.06,83.76,86.58,138,106.36,57.26,28.12,136.52,9.79,95.46-58.37-51.89-71.08-165.65-104.14-228.54-170.74C962.12,359.74,1064.57,217.27,1212.94,216.06Z"/><path id="Path_65" data-name="Path 65" class="cls-1" d="M1443.12,497.53c-2.21-132.84,92.92-278.89,233.46-280.37,96.18-5.57,201.47,95.43,143.45,191.47-68,104.56-29.41-36.86-145.12-126.55-141.17-93.9-140.81,158.48-110.72,242.72,27.75,89,78,211.27,176.71,213.85a484.84,484.84,0,0,0,73.06-37.1c2.42,4.25,9.61,16.4,12,20.73C1637.5,867.26,1436.65,710,1443.12,497.53Z"/><path id="Path_66" data-name="Path 66" class="cls-1" d="M2073,385.15c60.4-64.95,46.66-151.3-44.73-88.9-43,32.45-74,82.39-92.72,141.28-56.47-33.15-75.31-83.92-42.55-135.25,85.54-114,337.16-113.81,379.65,45.81,19.41,45.05,6.06,318.09,9.87,370.92-1.17,36.35,37.38,45.29,66.54,41.46v10.92H2245.4c-86.94-2-70.28-97-70.91-156C2099,858.59,1774.39,819.77,1885.93,569c46.62-77,136.13-118.81,190.37-189.27Zm-27.28-124.39c68.69-9.72,108.36,34.56,68.72,99.28-33.06,70.5-120.37,138.27-138,206.73-36.76,122,111.77,146.38,163.64,52.32,45.93-66,29.32-194.78,32.18-273.28a87.86,87.86,0,0,0-126.52-85Z"/><path id="Path_67" data-name="Path 67" class="cls-1" d="M2863.93,473.79c30.87,311.47-240.79,453.49-346.92,99.28,2,170.5,19,211-175.65,198.55V760.75c29.26,3.49,67.59-4.78,66.55-41.46-4.71-13.4,9.14-630.09-4.93-639.79-16.79-19.33-47.11,3.4-42-20.21C2582.1,24.61,2505.48-121,2519.14,277.46,2657.88,123,2872.09,313.63,2863.93,473.79Zm-265.1-210.55c-157.56,20-69.77,412.05,67.64,415.62C2823.83,653.6,2737.58,270.52,2598.83,263.24Z"/><path id="Path_68" data-name="Path 68" class="cls-1" d="M3127.7,213.88c115.79-7.78,226.25,130,147.82,231.83-35.54,50.22-99.39,74.21-152.74,100.36-49.36,25.28-57.25,101.32-20.17,142.36,46.77,59.42,94,61.39,152.73,19.1,12.75-9.7,12.49-2.89,18.54,7.1l4.35,7.63-49.08,28.36c-124.08,79.67-275-13.82-316.9-142.92C2846.47,444.36,2950.27,227.79,3127.7,213.88Zm-55.63,344.74c32.44-56.28,108.44-82.87,123.27-152.74,15-276.81-329.8-179.9-138.54,213.82A116.52,116.52,0,0,1,3072.07,558.62Z"/></g><path class="cls-1" d="M674.06,7.72A269.91,269.91,0,0,0,663.2,40c-1,1.93-5.78,1.69-6.51-.24,4.58-21-1.44-32.32-26.29-32.32-17.12,0-39.56,5.3-61.75,27-12.06,12.06-28.46,40.28-28.46,72.12,0,34.25,16.16,52.83,46.79,52.83,25.09,0,40.29-14.72,51.86-33.77,2.42-1,5.07-.49,5.79,1.69-2.17,6.51-7.48,19.29-15.68,34-5.3,0-11.81,1.45-19.05,2.66-7,1.2-15,2.89-23.4,2.89C555.15,166.91,519,152.68,519,102c0-28,14.71-54.75,34.49-72.6C573.72,11.1,602.9,0,634.5,0A107.77,107.77,0,0,1,674.06,7.72Z"/><path class="cls-1" d="M744.56,59.1c4.1-1.93,10.38.48,11.82,3.61-3.62,8.93-24.6,62.23-32.32,84.18-1.45,4.1-.24,5.55,1.69,5.55,4.1,0,11.1-4.1,24.84-16.16a3.25,3.25,0,0,1,3.38,3.14c-10.13,13.5-27.26,27-40.52,27a6.65,6.65,0,0,1-7-6.51c0-1.69.49-3.86,2.42-9.41l8-21.71-.73-.24C699,149.79,674.37,166.43,663,166.43c-6.76,0-10.62-6.75-10.62-13.51,0-5.54,5.31-24.84,21.23-46.79,11.58-15.92,22-25.57,31.84-31.12,9.41-5.3,15.44-7,21.71-7A11.89,11.89,0,0,1,733,69.47a14,14,0,0,1,4.82,5.06Zm-42,27.49c-15.43,13.75-30.15,45.35-30.15,62.47,0,2.9,1.45,4.59,3.62,4.59,2.41,0,9.65-3.14,23.4-15.68,18.33-17.13,28.46-37.87,32.32-52.1a12.69,12.69,0,0,0-12.06-8.69C713.93,77.18,710.07,79.84,702.59,86.59Z"/><path class="cls-1" d="M823.34,78.39A8.45,8.45,0,0,1,819,85.87c-1.69.48-3.14,0-4.59-1.93-4.1-4.1-7.23-7.72-14.71-7.72a9.81,9.81,0,0,0-9.89,9.65c0,5.06,1.21,10.13,8.2,21.95,6,10.13,9.65,16.16,9.17,26.77-.24,6.51-3.62,15.44-12.54,23.16-6.28,5.54-15.2,8.68-24.37,8.68s-14.71-7.24-14.71-12.78c0-2.42,1-5.07,3.62-8a4.81,4.81,0,0,1,6.51,0c3.14,3.61,10.37,9.64,16.64,9.64,5.79,0,11.58-6,11.58-13.74,0-4.1-2.89-11.58-8.92-21.23-6.27-10.13-8.44-18.33-8.44-22.43,0-9.41,4.1-16.4,14.47-25.33,7-6,14.71-8,17.85-8C817.79,64.64,823.34,72.36,823.34,78.39Z"/><path class="cls-1" d="M910.05,59.1c4.1-1.93,10.37.48,11.82,3.61-3.62,8.93-24.6,62.23-32.32,84.18-1.45,4.1-.24,5.55,1.69,5.55,4.1,0,11.09-4.1,24.84-16.16a3.25,3.25,0,0,1,3.38,3.14c-10.13,13.5-27.26,27-40.53,27a6.64,6.64,0,0,1-7-6.51c0-1.69.48-3.86,2.41-9.41l8-21.71-.72-.24c-17.13,21.23-41.73,37.87-53.07,37.87-6.75,0-10.61-6.75-10.61-13.51,0-5.54,5.31-24.84,21.23-46.79C850.71,90.21,861.09,80.56,871,75c9.4-5.3,15.43-7,21.7-7a11.86,11.86,0,0,1,5.79,1.45,13.91,13.91,0,0,1,4.83,5.06Zm-42,27.49c-15.44,13.75-30.15,45.35-30.15,62.47,0,2.9,1.45,4.59,3.62,4.59,2.41,0,9.65-3.14,23.39-15.68,18.34-17.13,28.47-37.87,32.33-52.1a12.69,12.69,0,0,0-12.06-8.69C879.42,77.18,875.56,79.84,868.08,86.59Z"/></g></g></svg>